# xmcd CD database file
#
# Track frame offsets:
#	150
#	11760
#	26692
#	38832
#	51895
#	62605
#	72545
#	84702
#	96777
#	109697
#	122692
#	136022
#	148115
#	159087
#	175002
#	187402
#	199232
#	213570
#	226775
#	239545
#	251105
#	262967
#	275215
#	288732
#	300255
#	313390
#
# Disc length: 4317 seconds
#
# Revision: 0
# Processed by: cddbd v1.5.2PL0 Copyright (c) Steve Scherf et al.
# Submitted via: CDex 1.70beta2
#
DISCID=8810db1a
DTITLE=Jones Classic Country - Jones Classic Country
DYEAR=0000
DGENRE=Country
TTITLE0=Conway Twitty and Loretta Lynn/Louisiana Woman, Mississippi Man
TTITLE1=Bob Lurman/Lonely Women Make Good Lovers
TTITLE2=Tammy Wynette/Another Lonely Song
TTITLE3=Hank Snow/Beggar To A King
TTITLE4=David Houston/Baby, Baby (I Know You're A Lady)
TTITLE5=Loretta Lynn/Don't Come Home A Drinkin' (With Lovin' On Your Mind)
TTITLE6=Wanda Jackson/Right Or Wrong
TTITLE7=Ernest Ashworth/Talk Back Termbling Lips
TTITLE8=Vern Gosdin/Till The End
TTITLE9=Bill Anderson/Still
TTITLE10=Bobby Helms/Fraulein
TTITLE11=Hank Snow/Ninety Miles An Hour (Down A Dead-End Street)
TTITLE12=Jimmie Rodgers/Kisses Sweeter Than Wine
TTITLE13=Merle Haggard/Hungry Eyes
TTITLE14=Flatt and Scruggs/Foggy Mountain Breakdown
TTITLE15=Loretta Lynn/Rated "X"
TTITLE16=Glen Campbell/Wichita Lineman
TTITLE17=Johnny Tillotson/It Keeps Right On A-Hurtin'
TTITLE18=Hank Thompson/Oklahoma Hills
TTITLE19=Willie Nelson/Party's Over
TTITLE20=Marvin Rainwater/Gonna Find Me A Bluebird
TTITLE21=Hank Williams Sr/Take These Chains From My Heart
TTITLE22=Conway Twitty/Image Of Me
TTITLE23=Hank Locklin/Let Me Be The One
TTITLE24=Willie Nelson/Remember Me
TTITLE25=Roger Miller/Kansas City Star
EXTD=YEAR: 0000
EXTT0=
EXTT1=
EXTT2=
EXTT3=
EXTT4=
EXTT5=
EXTT6=
EXTT7=
EXTT8=
EXTT9=
EXTT10=
EXTT11=
EXTT12=
EXTT13=
EXTT14=
EXTT15=
EXTT16=
EXTT17=
EXTT18=
EXTT19=
EXTT20=
EXTT21=
EXTT22=
EXTT23=
EXTT24=
EXTT25=
PLAYORDER=
